<svg width="22" height="25" viewBox="0 0 22 25" fill="none" xmlns="http://www.w3.org/2000/svg"><path d="M17.57 1.656a112.496 112.496 0 00-13.515 22.11" stroke="#296ECB" stroke-width="1.5" stroke-linecap="round"/><path d="M10.984 1.476a.75.75 0 00.26 1.477l-.26-1.477zm7.492 6.54a.75.75 0 101.477-.26l-1.477.26zm-7.232-5.063l5.901-1.04-.26-1.478-5.901 1.04.26 1.478zm6.191-.838l1.04 5.901 1.478-.26-1.04-5.901-1.478.26zm-.29-.203a.25.25 0 01.29.203l1.477-.26a1.75 1.75 0 00-2.027-1.42l.26 1.477z" fill="#296ECB"/></svg>