<svg width="141" height="70" viewBox="0 0 141 70" fill="none" xmlns="http://www.w3.org/2000/svg"><path d="M125.16 32.684l-6.298 31.334-6.246-31.334H97.553v36.74h8.24v-31.44l7.243 31.44h11.6l7.243-31.44v31.44h8.188v-36.74H125.16zM59.795 51c0 11.757 6.403 19 18.003 19 11.652 0 18.055-7.243 18.055-19S89.45 32 77.798 32c-11.6 0-18.003 7.243-18.003 19zm8.608 0c0-7.138 3.411-11.967 9.395-11.967 6.036 0 9.447 4.829 9.447 11.967 0 7.138-3.411 11.967-9.447 11.967-5.984 0-9.395-4.829-9.395-11.967zM31.024 69.425l8.66-31.44 8.45 31.44h8.975l-10.864-36.74H33.28l-11.022 36.74h8.765z" fill="#262626"/><path d="M59.848 61.21v8.216H19v-8.215h40.848z" fill="#262626"/><path d="M5.61 23.05c-.78-.58-1.38-1.1-1.8-1.56-.42-.46-.64-.9-.66-1.32-.02-.1-.03-.28-.03-.54 0-.56.05-1.26.15-2.1.1-.84.2-1.51.3-2.01.08-.08.12-.2.12-.36.02-.16.02-.26 0-.3 0-.06.05-.26.15-.6.24-.74.41-1.36.51-1.86.54-1.64 1.07-2.95 1.59-3.93s1.1-1.9 1.74-2.76c1.36-1.4 2.81-2.46 4.35-3.18.78-.46 1.34-.69 1.68-.69.06 0 .15.02.27.06 2.46.54 3.93 2.1 4.41 4.68.18 1.22.27 2.14.27 2.76 0 1-.18 2.01-.54 3.03-.36 1.02-1.01 2.3-1.95 3.84-.8 1.6-1.71 2.97-2.73 4.11-1 1.12-2.01 1.96-3.03 2.52-1 .56-1.94.84-2.82.84-.78 0-1.44-.21-1.98-.63zm2.4-1.98c.48-.06.85-.15 1.11-.27.28-.12.56-.32.84-.6.3-.3.78-.83 1.44-1.59.84-.96 1.43-1.66 1.77-2.1.34-.46.65-1.03.93-1.71.3-.68.63-1.66.99-2.94l.18-.69c.12-.42.2-.76.24-1.02.06-.28.09-.58.09-.9l-.03-1.89c-.02-.36-.09-.75-.21-1.17-.12-.42-.26-.72-.42-.9a1.83 1.83 0 00-.66-.45c-.26-.14-.53-.21-.81-.21-.2 0-.43.05-.69.15-.38.16-.91.59-1.59 1.29-.68.68-1.29 1.38-1.83 2.1-.52.72-.78 1.2-.78 1.44 0 .02-.01.08-.03.18a.66.66 0 01-.12.27c-.52.56-1.05 1.74-1.59 3.54-.52 1.8-.82 3.37-.9 4.71-.02.58-.02.98 0 1.2.04.22.15.47.33.75.14.22.39.43.75.63.38.18.71.24.99.18zm11.57-.21c-.36-.06-.69-.26-.99-.6-.3-.34-.45-.73-.45-1.17 0-.48.3-1.71.9-3.69.1-.52.32-1.19.66-2.01l.21-.6c.36-1.2.85-2.67 1.47-4.41l.27-.72c.7-1.9 1.12-3.06 1.26-3.48l.48-1.32c0-.16.11-.31.33-.45.24-.16.44-.24.6-.24.32 0 .63.21.93.63.3.42.46.86.48 1.32 0 .24-.05.46-.15.66-.46 1-1.03 2.55-1.71 4.65-.3.88-.6 1.72-.9 2.52-.3.78-.54 1.34-.72 1.68l-.33.66-.42 1.59c0 .06-.01.11-.03.15a.23.23 0 00-.03.09c0 .06.01.09.03.09l.51-.51c.58-.58 1.27-1.17 2.07-1.77.66-.46 1-.72 1.02-.78.02-.06.1-.15.24-.27l.3-.24c.64-.46 1.33-.69 2.07-.69.22 0 .48.11.78.33.3.22.55.53.75.93.22.38.33.79.33 1.23v.45c0 .5-.1 1.16-.3 1.98-.18.8-.28 1.26-.3 1.38.1 0 .25-.02.45-.06.3 0 .51.03.63.09.14.06.26.14.36.24.1.1.19.16.27.18.04.04.06.1.06.18 0 .46-.25.86-.75 1.2-.5.34-.98.53-1.44.57-.56 0-1.01-.21-1.35-.63-.34-.42-.51-.93-.51-1.53 0-.24.01-.48.03-.72.02-.24.04-.45.06-.63.06-.4.09-.72.09-.96 0-.26-.03-.43-.09-.51-.04-.1-.12-.15-.24-.15-.4 0-1.1.37-2.1 1.11-.98.72-1.98 1.66-3 2.82-.64.94-1.25 1.41-1.83 1.41zm34.015.21c-.04.02-.14.03-.3.03-.3 0-.59-.08-.87-.24-.28-.16-.46-.4-.54-.72-.02-.06-.11-.25-.27-.57-.14-.32-.21-.69-.21-1.11 0-.18.01-.32.03-.42l.15-.93c.04-.38.08-.61.12-.69v-.27c0-.34-.03-.51-.09-.51-.16 0-.58.37-1.26 1.11-.66.74-1.23 1.47-1.71 2.19-.14.18-.3.45-.48.81-.16.34-.26.52-.3.54-.08.08-.2.12-.36.12-.18 0-.38-.06-.6-.18-.22-.12-.38-.27-.48-.45a.507.507 0 00-.24-.21c-.12-.08-.18-.22-.18-.42 0-.34.13-.9.39-1.68.22-.66.4-1.23.54-1.71.16-.48.26-.8.3-.96 0-.14-.5.22-1.5 1.08-1.1 1.28-2.08 2.5-2.94 3.66-.42.58-.75 1-.99 1.26-.24.24-.45.36-.63.36-.14 0-.29-.09-.45-.27a2.32 2.32 0 00-.42-.3c-.18-.12-.27-.22-.27-.3 0-.16-.05-.24-.15-.24-.12-.12.08-.77.6-1.95.54-1.2 1.02-2.12 1.44-2.76.08-.06.14-.14.18-.24.04-.12.04-.18 0-.18.04-.06.1-.16.18-.3.08-.14.16-.26.24-.36.34-.66.48-1.19.42-1.59a.286.286 0 00-.27-.09c-.08.02-.13.04-.15.06-.04.02-.15.06-.33.12-.16.04-.3.1-.42.18-.48.32-.81.48-.99.48-.22 0-.43-.24-.63-.72-.06-.18-.09-.35-.09-.51 0-.26.08-.46.24-.6.16-.14.37-.29.63-.45.26-.16.41-.26.45-.3.22-.12.5-.25.84-.39.36-.16.63-.27.81-.33.24-.08.48-.12.72-.12.66 0 1.13.32 1.41.96.28.34.42.7.42 1.08 0 .34-.14.81-.42 1.41l-.3.45c-.06.12-.09.2-.09.24 0 .04.01.06.03.06.08 0 .17-.07.27-.21.1-.1.23-.22.39-.36.16-.16.27-.24.33-.24.02 0 .05-.01.09-.03.04-.04.06-.12.06-.24l.3-.27c.06 0 .17-.05.33-.15.16-.12.38-.29.66-.51.22-.16.42-.24.6-.24a.91.91 0 01.27-.03c.38 0 .69.21.93.63.24.4.36.92.36 1.56l-.63 1.62 1.08-1.32c.18-.22.42-.46.72-.72.04-.12.09-.19.15-.21.08-.04.13-.06.15-.06.02 0 .04-.01.06-.03.04-.02.06-.05.06-.09.08-.06.18-.13.3-.21.14-.1.23-.18.27-.24.18-.08.42-.12.72-.12.32 0 .62.07.9.21.28.12.49.32.63.6.06.1.14.24.24.42.12.16.2.32.24.48.06.14.09.32.09.54l-.12.66c0-.02-.05.32-.15 1.02-.1.22-.15.56-.15 1.02 0 .28.01.46.03.54.04.08.12.12.24.12.26-.06.48-.15.66-.27.2-.12.43-.3.69-.54.16-.16.32-.24.48-.24.18 0 .33.08.45.24.14.14.24.31.3.51.06.12-.05.44-.33.96-.26.52-.46.78-.6.78-.04 0-.15.08-.33.24-.18.14-.33.25-.45.33-.34.38-.62.57-.84.57a.91.91 0 00-.33.09c-.12.04-.23.06-.33.06zm6.339 8.07c-.14.04-.32-.04-.54-.24-.2-.18-.3-.44-.3-.78l.03-.27c-.04-.16-.06-.3-.06-.42 0-.48.28-1.29.84-2.43.14-.22.34-.64.6-1.26.18-.46.36-.86.54-1.2.06-.1.33-.57.81-1.41.5-.86.97-1.86 1.41-3-.16.16-.57.63-1.23 1.41-.5.6-.89 1.02-1.17 1.26-.26.24-.54.35-.84.33-.28-.06-.6-.23-.96-.51-.34-.3-.56-.61-.66-.93-.06-.34-.09-.71-.09-1.11 0-.9.13-2.12.39-3.66.16-.74.24-1.26.24-1.56 0-.34-.05-.6-.15-.78-.1-.2-.24-.38-.42-.54-.14-.12-.21-.25-.21-.39 0-.18.09-.36.27-.54.18-.2.39-.36.63-.48.36-.08.6-.12.72-.12.34 0 .69.19 1.05.57.04.08.13.24.27.48.14.22.25.47.33.75.08.26.12.56.12.9 0 .1-.05.82-.15 2.16l-.33 1.2c-.12.42-.22.78-.3 1.08-.06.3-.06.45 0 .45.58-.48 1.07-.95 1.47-1.41.42-.46 1.01-1.21 1.77-2.25.08-.14.23-.41.45-.81.24-.42.42-.81.54-1.17.14-.28.3-.56.48-.84.2-.28.34-.43.42-.45.12-.04.34 0 .66.12.34.12.52.21.54.27 0 .02.18.05.54.09.38.02.57.06.57.12 0 .04-.15.4-.45 1.08-.42.98-.62 1.49-.6 1.53.06.08-.05.42-.33 1.02-.26.6-.41.95-.45 1.05-.5 1.6-1.04 2.9-1.62 3.9-.2.36-.68 1.41-1.44 3.15l-.24.57c-.2.44-.42.94-.66 1.5-.24.58-.45 1.09-.63 1.53-.12.24-.21.43-.27.57-.04.16-.08.28-.12.36-.04.38-.13.66-.27.84-.1.1-.24.17-.42.21-.18.04-.35.06-.51.06h-.27z" fill="#296ECB"/></svg>