<svg width="230" height="70" viewBox="0 0 230 70" fill="none" xmlns="http://www.w3.org/2000/svg"><path d="M125.16 32.684l-6.298 31.334-6.246-31.334H97.553v36.74h8.24v-31.44l7.243 31.44h11.6l7.243-31.44v31.44h8.188v-36.74H125.16zM59.795 51c0 11.757 6.403 19 18.003 19 11.652 0 18.055-7.243 18.055-19S89.45 32 77.798 32c-11.6 0-18.003 7.243-18.003 19zm8.608 0c0-7.138 3.411-11.967 9.395-11.967 6.036 0 9.447 4.829 9.447 11.967 0 7.138-3.411 11.967-9.447 11.967-5.984 0-9.395-4.829-9.395-11.967zM31.024 69.425l8.66-31.44 8.45 31.44h8.975l-10.864-36.74H33.28l-11.022 36.74h8.765z" fill="#262626"/><path d="M59.848 61.21v8.216H19v-8.215h40.848z" fill="#262626"/><path d="M5.82 23.83c-1.4-.34-2.44-1.51-3.12-3.51-.02-.12-.03-.36-.03-.72 0-.5.02-.99.06-1.47.04-.5.09-.79.15-.87.06-.04.09-.16.09-.36-.02-.12.05-.45.21-.99.14-.36.18-.67.12-.93.02-.04.05-.11.09-.21.06-.1.13-.2.21-.3.1-.1.15-.2.15-.3.02-.12.02-.2 0-.24v-.03c0-.08.02-.18.06-.3.06-.14.12-.25.18-.33.06-.06.11-.14.15-.24.06-.1.1-.17.12-.21.02-.14.17-.58.45-1.32.3-.76.5-1.22.6-1.38v-.06c.08-.2.19-.41.33-.63.04-.28.18-.67.42-1.17.46-1.02 1.1-2.19 1.92-3.51.84-1.34 1.5-2.24 1.98-2.7.52-.6.99-.9 1.41-.9.22 0 .42.09.6.27.14.14.25.34.33.6.1.26.15.49.15.69 0 .28-.08.43-.24.45-.2.14-.51.55-.93 1.23-.4.68-.94 1.64-1.62 2.88l-.45.84c-.26.56-.49 1.03-.69 1.41-.18.38-.3.63-.36.75l-.12.27a36.49 36.49 0 00-1.35 3.3c-.1.12-.17.25-.21.39-.02.12-.03.2-.03.24-.04-.02-.08.04-.12.18-.02.12-.05.23-.09.33-.14.12-.21.41-.21.87-.18.48-.34 1.08-.48 1.8-.14.72-.21 1.31-.21 1.77 0 .44.07.8.21 1.08.16.28.4.49.72.63.48.24.84.36 1.08.36.14.02.35.01.63-.03.3-.04.64-.09 1.02-.15h-.03c.1-.02.65-.14 1.65-.36.48-.06.88-.15 1.2-.27.16-.04.38-.1.66-.18.3-.1.52-.15.66-.15.14-.02.24-.01.3.03.12.12.23.29.33.51.12.2.15.38.09.54-.04.1-.25.31-.63.63-.38.34-.8.66-1.26.96-.46.3-.86.5-1.2.6-.68.3-1.66.45-2.94.45-.9 0-1.57-.08-2.01-.24zm11.993-2.04c-.24 0-.43-.04-.57-.12-.14-.08-.34-.23-.6-.45-.4-.42-.71-.85-.93-1.29-.22-.46-.3-.86-.24-1.2.06-.14.08-.28.06-.42v-.27c-.08-.08-.12-.13-.12-.15 0-.04.02-.07.06-.09a.47.47 0 00.09-.12c.12 0 .16-.11.12-.33-.04-.16.03-.51.21-1.05s.41-1.04.69-1.5c.22-.36.54-.81.96-1.35.44-.54.83-.95 1.17-1.23 1-.86 1.9-1.38 2.7-1.56.4-.1.79-.15 1.17-.15.58 0 1.03.16 1.35.48.44.18.76.44.96.78.2.34.33.79.39 1.35.02.12.03.32.03.6 0 1.48-.56 3.02-1.68 4.62-.46.66-.92 1.19-1.38 1.59-.46.4-1.02.8-1.68 1.2-.36.24-.74.4-1.14.48-.4.08-.94.14-1.62.18zm3.06-3.66c.38-.34.65-.68.81-1.02.18-.36.43-.98.75-1.86.12-.18.18-.54.18-1.08 0-.48-.07-.75-.21-.81a.558.558 0 00-.36-.12c-.18 0-.47.14-.87.42-.7.6-1.29 1.23-1.77 1.89-.46.64-.78 1.38-.96 2.22-.02.08-.03.2-.03.36 0 .68.24 1.02.72 1.02.46 0 1.04-.34 1.74-1.02zm9.4 3.99c-.24.04-.43.06-.57.06-.82 0-1.55-.26-2.19-.78-.62-.54-.93-1.22-.93-2.04l-.03-.48c0-.94.21-2.03.63-3.27.42-1.24.94-2.25 1.56-3.03.5-.58.93-1.05 1.29-1.41.36-.36.69-.6.99-.72.26-.1.59-.19.99-.27.4-.08.7-.12.9-.12.4.1.77.24 1.11.42.36.18.54.38.54.6l.15.15c.14 0 .3.22.48.66.2.44.3.84.3 1.2 0 .18-.03.33-.09.45-.08.38-.24.75-.48 1.11-.22.36-.41.54-.57.54-.22 0-.33.06-.33.18 0 .1-.12.15-.36.15-.2 0-.41-.04-.63-.12-.22-.1-.35-.22-.39-.36 0-.1.08-.5.24-1.2.06-.3.09-.55.09-.75 0-.36-.12-.54-.36-.54-.06 0-.21.04-.45.12-.52.28-.94.61-1.26.99-.3.36-.57.86-.81 1.5-.24.64-.52 1.57-.84 2.79-.06.24-.09.46-.09.66 0 .24.03.44.09.6.06.14.12.22.18.24.1.04.28.06.54.06.5 0 .9-.09 1.2-.27.36-.2.71-.42 1.05-.66l.63-.48c.04-.04.12-.15.24-.33.12-.2.25-.33.39-.39.12-.18.27-.29.45-.33.18-.04.36-.06.54-.06h.36c.26.08.51.26.75.54s.28.46.12.54c-.06 0-.1.02-.12.06a.23.23 0 00-.03.09c.04.1-.12.37-.48.81-.36.42-.76.83-1.2 1.23-.44.38-.74.57-.9.57-.08 0-.15.01-.21.03-.06.02-.09.07-.09.15 0 .08-.31.27-.93.57-.6.28-1.09.46-1.47.54zm9.967-.54c-.2.04-.38.06-.54.06-.26 0-.5-.02-.72-.06-.22-.06-.33-.13-.33-.21 0-.06-.01-.1-.03-.12-.02-.02-.06-.03-.12-.03-.06-.06-.2-.16-.42-.3-.2-.16-.37-.27-.51-.33-.24-.34-.36-.71-.36-1.11 0-.38.12-.99.36-1.83.02-.78.3-1.65.84-2.61.56-.98 1.23-1.88 2.01-2.7.78-.84 1.48-1.44 2.1-1.8.3-.3.72-.45 1.26-.45.42 0 .79.09 1.11.27.26.16.58.5.96 1.02.4.52.7.99.9 1.41.04.14.09.33.15.57.08.24.12.53.12.87l-.06.84c-.24.82-.36 1.56-.36 2.22-.04.28-.02.51.06.69.08.16.19.24.33.24.1 0 .21-.03.33-.09.12-.06.26-.09.42-.09.26 0 .48.08.66.24.18.16.27.36.27.6 0 .2-.05.39-.15.57-.18.4-.52.76-1.02 1.08-.48.32-.93.48-1.35.48-.34 0-.67-.18-.99-.54-.3-.36-.54-.83-.72-1.41l-.18-.69-1.08.99-.69.69c-.32.32-.5.51-.54.57-.1.16-.28.31-.54.45-.24.14-.63.31-1.17.51zm.81-2.88c.36-.2.66-.45.9-.75.26-.3.58-.72.96-1.26l.24-.36c.08-.14.18-.28.3-.42.34-.46.58-.83.72-1.11.16-.28.28-.58.36-.9-.08-.26-.2-.5-.36-.72-.14-.24-.27-.37-.39-.39-.56 0-1.32.66-2.28 1.98-.1.14-.26.39-.48.75-.2.36-.33.6-.39.72-.1.14-.24.48-.42 1.02-.16.52-.24.86-.24 1.02 0 .44.13.66.39.66.2 0 .43-.08.69-.24zm9.605 2.58c-.26-.14-.5-.32-.72-.54-.2-.24-.3-.46-.3-.66 0-.28.03-.64.09-1.08.08-.44.17-.84.27-1.2.06-.5.12-.9.18-1.2.08-.32.21-.63.39-.93.08-.3.22-.75.42-1.35.44-1.4.74-2.48.9-3.24.16-.44.3-.83.42-1.17l.33-.93c-.04.12.21-.56.75-2.04.16-.48.27-.85.33-1.11.22-.9.47-1.58.75-2.04.14-.2.24-.37.3-.51.08-.14.15-.25.21-.33.02-.08.12-.15.3-.21.2-.06.4-.09.6-.09.22 0 .37.04.45.12.1-.04.27.13.51.51.26.36.38.62.36.78 0 .26-.07.5-.21.72-.08.08-.17.23-.27.45-.1.2-.19.37-.27.51l-.21.72c-.08.32-.16.59-.24.81-.1.24-.2.47-.3.69-.08.2-.15.38-.21.54-.08.26-.22.65-.42 1.17-.28.68-.47 1.21-.57 1.59-.04.12-.11.37-.21.75-.28 1-.55 1.73-.81 2.19-.16.26-.28.61-.36 1.05-.06.44-.1.71-.12.81-.3.9-.45 1.43-.45 1.59-.04.18-.11.53-.21 1.05-.12.64-.24 1.1-.36 1.38-.04.3-.16.59-.36.87-.18.28-.39.42-.63.42-.1 0-.21-.03-.33-.09zm7.522.93c-1.06 0-1.84-.34-2.34-1.02-.14-.28-.21-.58-.21-.9 0-.24.04-.44.12-.6.08-.16.19-.24.33-.24.1 0 .2.05.3.15.26.16.63.24 1.11.24.2 0 .64-.02 1.32-.06.3-.02.53-.09.69-.21.18-.14.27-.29.27-.45 0-.16-.06-.28-.18-.36h.03c-.84-.2-1.62-.54-2.34-1.02-.72-.5-1.12-.97-1.2-1.41-.06-.28-.09-.54-.09-.78 0-.54.11-1.08.33-1.62.24-.54.55-1.03.93-1.47.1-.06.32-.21.66-.45.36-.26.62-.41.78-.45v.03c.36-.38.76-.69 1.2-.93.46-.26 1.05-.51 1.77-.75l.48-.06.63-.06c.02.02.07.05.15.09l.3.06c.12.06.24.09.36.09.42.08.81.37 1.17.87.38.48.55.93.51 1.35-.06.48-.24.94-.54 1.38-.28.44-.57.69-.87.75.04-.02-.02-.07-.18-.15a7.53 7.53 0 00-.27-.15l-.12.06a.23.23 0 00-.03-.09c0-.06-.02-.13-.06-.21-.14-.26-.2-.59-.18-.99l.06-.3c0-.06-.04-.1-.12-.12a.49.49 0 00-.27-.06c-.06-.02-.16-.03-.3-.03-.28 0-.59.06-.93.18-.32.12-.61.28-.87.48-.58.4-.96.69-1.14.87-.16.16-.33.45-.51.87-.2.3-.3.53-.3.69 0 .2.15.4.45.6.32.2.85.45 1.59.75.42.18.72.41.9.69.18.26.32.52.42.78.1.24.17.41.21.51.04.12.08.28.12.48.04.2.05.31.03.33l.06.12v-.03c.06.12.09.24.09.36 0 .4-.26.81-.78 1.23-.52.42-1.14.7-1.86.84h.03c-.54.08-1.11.12-1.71.12z" fill="#296ECB"/></svg>