<svg width="84" height="27" viewBox="0 0 84 27" fill="none" xmlns="http://www.w3.org/2000/svg"><path d="M73.575.47l-4.33 21.542L64.953.471H54.596v25.258h5.665V4.115l4.98 21.614h7.974l4.98-21.614V25.73h5.628V.47H73.575zm-45.53 12.592c0 8.083 4.402 13.062 12.376 13.062 8.01 0 12.413-4.98 12.413-13.062C52.834 4.98 48.432 0 40.421 0c-7.974 0-12.376 4.98-12.376 13.062zm5.918 0c0-4.907 2.345-8.227 6.458-8.227 4.15 0 6.495 3.32 6.495 8.227s-2.345 8.227-6.495 8.227c-4.113 0-6.458-3.32-6.458-8.227zM8.266 25.729L14.22 4.114l5.809 21.614h6.17L18.73.47H9.817L2.24 25.728h6.026z" fill="#262626"/><path d="M28.082 20.081v5.648H0V20.08h28.082z" fill="#262626"/></svg>