<svg width="22" height="25" viewBox="0 0 22 25" fill="none" xmlns="http://www.w3.org/2000/svg">
<path d="M17.5703 1.65625C12.2374 8.47028 7.69645 15.8916 4.05482 23.7668" stroke="#296ECB" stroke-width="1.5" stroke-linecap="round"/>
<path d="M10.9837 1.47559C10.5758 1.54751 10.3034 1.93651 10.3753 2.34443C10.4472 2.75235 10.8362 3.02472 11.2442 2.9528L10.9837 1.47559ZM18.4756 8.01631C18.5475 8.42423 18.9365 8.69661 19.3444 8.62468C19.7524 8.55275 20.0247 8.16376 19.9528 7.75584L18.4756 8.01631ZM11.2442 2.9528L17.1454 1.91225L16.885 0.435041L10.9837 1.47559L11.2442 2.9528ZM17.435 2.11504L18.4756 8.01631L19.9528 7.75584L18.9123 1.85457L17.435 2.11504ZM17.1454 1.91225C17.2814 1.88828 17.4111 1.97907 17.435 2.11504L18.9123 1.85457C18.7444 0.902758 17.8368 0.267212 16.885 0.435041L17.1454 1.91225Z" fill="#296ECB"/>
</svg>
