<svg width="141" height="70" viewBox="0 0 141 70" fill="none" xmlns="http://www.w3.org/2000/svg">
<path d="M125.16 32.6836L118.862 64.0179L112.616 32.6836H97.5527V69.4239H105.793V37.9847L113.036 69.4239H124.636L131.879 37.9847V69.4239H140.067V32.6836H125.16Z" fill="#262626"/>
<path d="M59.7949 51C59.7949 62.7569 66.1982 70 77.7977 70C89.4496 70 95.8529 62.7569 95.8529 51C95.8529 39.2431 89.4496 32 77.7977 32C66.1982 32 59.7949 39.2431 59.7949 51ZM68.4027 51C68.4027 43.8619 71.8143 39.0331 77.7977 39.0331C83.8336 39.0331 87.2452 43.8619 87.2452 51C87.2452 58.1381 83.8336 62.9669 77.7977 62.9669C71.8143 62.9669 68.4027 58.1381 68.4027 51Z" fill="#262626"/>
<path d="M31.0237 69.4248L39.684 37.9856L48.1342 69.4248L57.1094 69.4248L46.2447 32.6845L33.2806 32.6845L22.2585 69.4248L31.0237 69.4248Z" fill="#262626"/>
<path d="M59.8477 61.2109L59.8477 69.4262L18.9997 69.4262L18.9997 61.2109L59.8477 61.2109Z" fill="#262626"/>
<path d="M5.61 23.05C4.83 22.47 4.23 21.95 3.81 21.49C3.39 21.03 3.17 20.59 3.15 20.17C3.13 20.07 3.12 19.89 3.12 19.63C3.12 19.07 3.17 18.37 3.27 17.53C3.37 16.69 3.47 16.02 3.57 15.52C3.65 15.44 3.69 15.32 3.69 15.16C3.71 15 3.71 14.9 3.69 14.86C3.69 14.8 3.74 14.6 3.84 14.26C4.08 13.52 4.25 12.9 4.35 12.4C4.89 10.76 5.42 9.45 5.94 8.47C6.46 7.49 7.04 6.57 7.68 5.71C9.04 4.31 10.49 3.25 12.03 2.53C12.81 2.07 13.37 1.84 13.71 1.84C13.77 1.84 13.86 1.86 13.98 1.9C16.44 2.44 17.91 4 18.39 6.58C18.57 7.8 18.66 8.72 18.66 9.34C18.66 10.34 18.48 11.35 18.12 12.37C17.76 13.39 17.11 14.67 16.17 16.21C15.37 17.81 14.46 19.18 13.44 20.32C12.44 21.44 11.43 22.28 10.41 22.84C9.41 23.4 8.47 23.68 7.59 23.68C6.81 23.68 6.15 23.47 5.61 23.05ZM8.01 21.07C8.49 21.01 8.86 20.92 9.12 20.8C9.4 20.68 9.68 20.48 9.96 20.2C10.26 19.9 10.74 19.37 11.4 18.61C12.24 17.65 12.83 16.95 13.17 16.51C13.51 16.05 13.82 15.48 14.1 14.8C14.4 14.12 14.73 13.14 15.09 11.86L15.27 11.17C15.39 10.75 15.47 10.41 15.51 10.15C15.57 9.87 15.6 9.57 15.6 9.25L15.57 7.36C15.55 7 15.48 6.61 15.36 6.19C15.24 5.77 15.1 5.47 14.94 5.29C14.78 5.11 14.56 4.96 14.28 4.84C14.02 4.7 13.75 4.63 13.47 4.63C13.27 4.63 13.04 4.68 12.78 4.78C12.4 4.94 11.87 5.37 11.19 6.07C10.51 6.75 9.9 7.45 9.36 8.17C8.84 8.89 8.58 9.37 8.58 9.61C8.58 9.63 8.57 9.69 8.55 9.79C8.53 9.89 8.49 9.98 8.43 10.06C7.91 10.62 7.38 11.8 6.84 13.6C6.32 15.4 6.02 16.97 5.94 18.31C5.92 18.89 5.92 19.29 5.94 19.51C5.98 19.73 6.09 19.98 6.27 20.26C6.41 20.48 6.66 20.69 7.02 20.89C7.4 21.07 7.73 21.13 8.01 21.07ZM19.5795 20.86C19.2195 20.8 18.8895 20.6 18.5895 20.26C18.2895 19.92 18.1395 19.53 18.1395 19.09C18.1395 18.61 18.4395 17.38 19.0395 15.4C19.1395 14.88 19.3595 14.21 19.6995 13.39C19.8195 13.05 19.8895 12.85 19.9095 12.79C20.2695 11.59 20.7595 10.12 21.3795 8.38L21.6495 7.66C22.3495 5.76 22.7695 4.6 22.9095 4.18L23.3895 2.86C23.3895 2.7 23.4995 2.55 23.7195 2.41C23.9595 2.25 24.1595 2.17 24.3195 2.17C24.6395 2.17 24.9495 2.38 25.2495 2.8C25.5495 3.22 25.7095 3.66 25.7295 4.12C25.7295 4.36 25.6795 4.58 25.5795 4.78C25.1195 5.78 24.5495 7.33 23.8695 9.43C23.5695 10.31 23.2695 11.15 22.9695 11.95C22.6695 12.73 22.4295 13.29 22.2495 13.63L21.9195 14.29L21.4995 15.88C21.4995 15.94 21.4895 15.99 21.4695 16.03C21.4495 16.07 21.4395 16.1 21.4395 16.12C21.4395 16.18 21.4495 16.21 21.4695 16.21L21.9795 15.7C22.5595 15.12 23.2495 14.53 24.0495 13.93C24.7095 13.47 25.0495 13.21 25.0695 13.15C25.0895 13.09 25.1695 13 25.3095 12.88L25.6095 12.64C26.2495 12.18 26.9395 11.95 27.6795 11.95C27.8995 11.95 28.1595 12.06 28.4595 12.28C28.7595 12.5 29.0095 12.81 29.2095 13.21C29.4295 13.59 29.5395 14 29.5395 14.44V14.68V14.89C29.5395 15.39 29.4395 16.05 29.2395 16.87C29.0595 17.67 28.9595 18.13 28.9395 18.25C29.0395 18.25 29.1895 18.23 29.3895 18.19C29.6895 18.19 29.8995 18.22 30.0195 18.28C30.1595 18.34 30.2795 18.42 30.3795 18.52C30.4795 18.62 30.5695 18.68 30.6495 18.7C30.6895 18.74 30.7095 18.8 30.7095 18.88C30.7095 19.34 30.4595 19.74 29.9595 20.08C29.4595 20.42 28.9795 20.61 28.5195 20.65C27.9595 20.65 27.5095 20.44 27.1695 20.02C26.8295 19.6 26.6595 19.09 26.6595 18.49C26.6595 18.25 26.6695 18.01 26.6895 17.77C26.7095 17.53 26.7295 17.32 26.7495 17.14C26.8095 16.74 26.8395 16.42 26.8395 16.18C26.8395 15.92 26.8095 15.75 26.7495 15.67C26.7095 15.57 26.6295 15.52 26.5095 15.52C26.1095 15.52 25.4095 15.89 24.4095 16.63C23.4295 17.35 22.4295 18.29 21.4095 19.45C20.7695 20.39 20.1595 20.86 19.5795 20.86ZM53.5948 21.07C53.5548 21.09 53.4548 21.1 53.2948 21.1C52.9948 21.1 52.7048 21.02 52.4248 20.86C52.1448 20.7 51.9648 20.46 51.8848 20.14C51.8648 20.08 51.7748 19.89 51.6148 19.57C51.4748 19.25 51.4048 18.88 51.4048 18.46C51.4048 18.28 51.4148 18.14 51.4348 18.04L51.5848 17.11C51.6248 16.73 51.6648 16.5 51.7048 16.42V16.15C51.7048 15.81 51.6748 15.64 51.6148 15.64C51.4548 15.64 51.0348 16.01 50.3548 16.75C49.6948 17.49 49.1248 18.22 48.6448 18.94C48.5048 19.12 48.3448 19.39 48.1648 19.75C48.0048 20.09 47.9048 20.27 47.8648 20.29C47.7848 20.37 47.6648 20.41 47.5048 20.41C47.3248 20.41 47.1248 20.35 46.9048 20.23C46.6848 20.11 46.5248 19.96 46.4248 19.78C46.3848 19.7 46.3048 19.63 46.1848 19.57C46.0648 19.49 46.0048 19.35 46.0048 19.15C46.0048 18.81 46.1348 18.25 46.3948 17.47C46.6148 16.81 46.7948 16.24 46.9348 15.76C47.0948 15.28 47.1948 14.96 47.2348 14.8C47.2348 14.66 46.7348 15.02 45.7348 15.88C44.6348 17.16 43.6548 18.38 42.7948 19.54C42.3748 20.12 42.0448 20.54 41.8048 20.8C41.5648 21.04 41.3548 21.16 41.1748 21.16C41.0348 21.16 40.8848 21.07 40.7248 20.89C40.6448 20.81 40.5048 20.71 40.3048 20.59C40.1248 20.47 40.0348 20.37 40.0348 20.29C40.0348 20.13 39.9848 20.05 39.8848 20.05C39.7648 19.93 39.9648 19.28 40.4848 18.1C41.0248 16.9 41.5048 15.98 41.9248 15.34C42.0048 15.28 42.0648 15.2 42.1048 15.1C42.1448 14.98 42.1448 14.92 42.1048 14.92C42.1448 14.86 42.2048 14.76 42.2848 14.62C42.3648 14.48 42.4448 14.36 42.5248 14.26C42.8648 13.6 43.0048 13.07 42.9448 12.67C42.8648 12.59 42.7748 12.56 42.6748 12.58C42.5948 12.6 42.5448 12.62 42.5248 12.64C42.4848 12.66 42.3748 12.7 42.1948 12.76C42.0348 12.8 41.8948 12.86 41.7748 12.94C41.2948 13.26 40.9648 13.42 40.7848 13.42C40.5648 13.42 40.3548 13.18 40.1548 12.7C40.0948 12.52 40.0648 12.35 40.0648 12.19C40.0648 11.93 40.1448 11.73 40.3048 11.59C40.4648 11.45 40.6748 11.3 40.9348 11.14C41.1948 10.98 41.3448 10.88 41.3848 10.84C41.6048 10.72 41.8848 10.59 42.2248 10.45C42.5848 10.29 42.8548 10.18 43.0348 10.12C43.2748 10.04 43.5148 10 43.7548 10C44.4148 10 44.8848 10.32 45.1648 10.96C45.4448 11.3 45.5848 11.66 45.5848 12.04C45.5848 12.38 45.4448 12.85 45.1648 13.45L44.8648 13.9C44.8048 14.02 44.7748 14.1 44.7748 14.14C44.7748 14.18 44.7848 14.2 44.8048 14.2C44.8848 14.2 44.9748 14.13 45.0748 13.99C45.1748 13.89 45.3048 13.77 45.4648 13.63C45.6248 13.47 45.7348 13.39 45.7948 13.39C45.8148 13.39 45.8448 13.38 45.8848 13.36C45.9248 13.32 45.9448 13.24 45.9448 13.12L46.2448 12.85C46.3048 12.85 46.4148 12.8 46.5748 12.7C46.7348 12.58 46.9548 12.41 47.2348 12.19C47.4548 12.03 47.6548 11.95 47.8348 11.95C47.8948 11.93 47.9848 11.92 48.1048 11.92C48.4848 11.92 48.7948 12.13 49.0348 12.55C49.2748 12.95 49.3948 13.47 49.3948 14.11L48.7648 15.73L49.8448 14.41C50.0248 14.19 50.2648 13.95 50.5648 13.69C50.6048 13.57 50.6548 13.5 50.7148 13.48C50.7948 13.44 50.8448 13.42 50.8648 13.42C50.8848 13.42 50.9048 13.41 50.9248 13.39C50.9648 13.37 50.9848 13.34 50.9848 13.3C51.0648 13.24 51.1648 13.17 51.2848 13.09C51.4248 12.99 51.5148 12.91 51.5548 12.85C51.7348 12.77 51.9748 12.73 52.2748 12.73C52.5948 12.73 52.8948 12.8 53.1748 12.94C53.4548 13.06 53.6648 13.26 53.8048 13.54C53.8648 13.64 53.9448 13.78 54.0448 13.96C54.1648 14.12 54.2448 14.28 54.2848 14.44C54.3448 14.58 54.3748 14.76 54.3748 14.98L54.2548 15.64C54.2548 15.62 54.2048 15.96 54.1048 16.66C54.0048 16.88 53.9548 17.22 53.9548 17.68C53.9548 17.96 53.9648 18.14 53.9848 18.22C54.0248 18.3 54.1048 18.34 54.2248 18.34C54.4848 18.28 54.7048 18.19 54.8848 18.07C55.0848 17.95 55.3148 17.77 55.5748 17.53C55.7348 17.37 55.8948 17.29 56.0548 17.29C56.2348 17.29 56.3848 17.37 56.5048 17.53C56.6448 17.67 56.7448 17.84 56.8048 18.04C56.8648 18.16 56.7548 18.48 56.4748 19C56.2148 19.52 56.0148 19.78 55.8748 19.78C55.8348 19.78 55.7248 19.86 55.5448 20.02C55.3648 20.16 55.2148 20.27 55.0948 20.35C54.7548 20.73 54.4748 20.92 54.2548 20.92C54.1748 20.92 54.0648 20.95 53.9248 21.01C53.8048 21.05 53.6948 21.07 53.5948 21.07ZM59.9339 29.14C59.7939 29.18 59.6139 29.1 59.3939 28.9C59.1939 28.72 59.0939 28.46 59.0939 28.12L59.1239 27.85C59.0839 27.69 59.0639 27.55 59.0639 27.43C59.0639 26.95 59.3439 26.14 59.9039 25C60.0439 24.78 60.2439 24.36 60.5039 23.74C60.6839 23.28 60.8639 22.88 61.0439 22.54C61.1039 22.44 61.3739 21.97 61.8539 21.13C62.3539 20.27 62.8239 19.27 63.2639 18.13C63.1039 18.29 62.6939 18.76 62.0339 19.54C61.5339 20.14 61.1439 20.56 60.8639 20.8C60.6039 21.04 60.3239 21.15 60.0239 21.13C59.7439 21.07 59.4239 20.9 59.0639 20.62C58.7239 20.32 58.5039 20.01 58.4039 19.69C58.3439 19.35 58.3139 18.98 58.3139 18.58C58.3139 17.68 58.4439 16.46 58.7039 14.92C58.8639 14.18 58.9439 13.66 58.9439 13.36C58.9439 13.02 58.8939 12.76 58.7939 12.58C58.6939 12.38 58.5539 12.2 58.3739 12.04C58.2339 11.92 58.1639 11.79 58.1639 11.65C58.1639 11.47 58.2539 11.29 58.4339 11.11C58.6139 10.91 58.8239 10.75 59.0639 10.63C59.4239 10.55 59.6639 10.51 59.7839 10.51C60.1239 10.51 60.4739 10.7 60.8339 11.08C60.8739 11.16 60.9639 11.32 61.1039 11.56C61.2439 11.78 61.3539 12.03 61.4339 12.31C61.5139 12.57 61.5539 12.87 61.5539 13.21C61.5539 13.31 61.5039 14.03 61.4039 15.37L61.0739 16.57C60.9539 16.99 60.8539 17.35 60.7739 17.65C60.7139 17.95 60.7139 18.1 60.7739 18.1C61.3539 17.62 61.8439 17.15 62.2439 16.69C62.6639 16.23 63.2539 15.48 64.0139 14.44C64.0939 14.3 64.2439 14.03 64.4639 13.63C64.7039 13.21 64.8839 12.82 65.0039 12.46C65.1439 12.18 65.3039 11.9 65.4839 11.62C65.6839 11.34 65.8239 11.19 65.9039 11.17C66.0239 11.13 66.2439 11.17 66.5639 11.29C66.9039 11.41 67.0839 11.5 67.1039 11.56C67.1039 11.58 67.2839 11.61 67.6439 11.65C68.0239 11.67 68.2139 11.71 68.2139 11.77C68.2139 11.81 68.0639 12.17 67.7639 12.85C67.3439 13.83 67.1439 14.34 67.1639 14.38C67.2239 14.46 67.1139 14.8 66.8339 15.4C66.5739 16 66.4239 16.35 66.3839 16.45C65.8839 18.05 65.3439 19.35 64.7639 20.35C64.5639 20.71 64.0839 21.76 63.3239 23.5L63.0839 24.07C62.8839 24.51 62.6639 25.01 62.4239 25.57C62.1839 26.15 61.9739 26.66 61.7939 27.1C61.6739 27.34 61.5839 27.53 61.5239 27.67C61.4839 27.83 61.4439 27.95 61.4039 28.03C61.3639 28.41 61.2739 28.69 61.1339 28.87C61.0339 28.97 60.8939 29.04 60.7139 29.08C60.5339 29.12 60.3639 29.14 60.2039 29.14C60.0639 29.14 59.9739 29.14 59.9339 29.14Z" fill="#296ECB"/>
</svg>
