<svg width="230" height="70" viewBox="0 0 230 70" fill="none" xmlns="http://www.w3.org/2000/svg">
<path d="M125.16 32.6836L118.862 64.0179L112.616 32.6836H97.5527V69.4239H105.793V37.9847L113.036 69.4239H124.636L131.879 37.9847V69.4239H140.067V32.6836H125.16Z" fill="#262626"/>
<path d="M59.7949 51C59.7949 62.7569 66.1982 70 77.7977 70C89.4496 70 95.8529 62.7569 95.8529 51C95.8529 39.2431 89.4496 32 77.7977 32C66.1982 32 59.7949 39.2431 59.7949 51ZM68.4027 51C68.4027 43.8619 71.8143 39.0331 77.7977 39.0331C83.8336 39.0331 87.2452 43.8619 87.2452 51C87.2452 58.1381 83.8336 62.9669 77.7977 62.9669C71.8143 62.9669 68.4027 58.1381 68.4027 51Z" fill="#262626"/>
<path d="M31.0237 69.4248L39.684 37.9856L48.1342 69.4248L57.1094 69.4248L46.2447 32.6845L33.2806 32.6845L22.2585 69.4248L31.0237 69.4248Z" fill="#262626"/>
<path d="M59.8477 61.2109L59.8477 69.4262L18.9997 69.4262L18.9997 61.2109L59.8477 61.2109Z" fill="#262626"/>
<path d="M5.82 23.83C4.42 23.49 3.38 22.32 2.7 20.32C2.68 20.2 2.67 19.96 2.67 19.6C2.67 19.1 2.69 18.61 2.73 18.13C2.77 17.63 2.82 17.34 2.88 17.26C2.94 17.22 2.97 17.1 2.97 16.9C2.95 16.78 3.02 16.45 3.18 15.91C3.32 15.55 3.36 15.24 3.3 14.98C3.32 14.94 3.35 14.87 3.39 14.77C3.45 14.67 3.52 14.57 3.6 14.47C3.7 14.37 3.75 14.27 3.75 14.17C3.77 14.05 3.77 13.97 3.75 13.93V13.9C3.75 13.82 3.77 13.72 3.81 13.6C3.87 13.46 3.93 13.35 3.99 13.27C4.05 13.21 4.1 13.13 4.14 13.03C4.2 12.93 4.24 12.86 4.26 12.82C4.28 12.68 4.43 12.24 4.71 11.5C5.01 10.74 5.21 10.28 5.31 10.12V10.06C5.39 9.86 5.5 9.65 5.64 9.43C5.68 9.15 5.82 8.76 6.06 8.26C6.52 7.24 7.16 6.07 7.98 4.75C8.82 3.41 9.48 2.51 9.96 2.05C10.48 1.45 10.95 1.15 11.37 1.15C11.59 1.15 11.79 1.24 11.97 1.42C12.11 1.56 12.22 1.76 12.3 2.02C12.4 2.28 12.45 2.51 12.45 2.71C12.45 2.99 12.37 3.14 12.21 3.16C12.01 3.3 11.7 3.71 11.28 4.39C10.88 5.07 10.34 6.03 9.66 7.27L9.21 8.11C8.95 8.67 8.72 9.14 8.52 9.52C8.34 9.9 8.22 10.15 8.16 10.27L8.04 10.54C7.56 11.56 7.11 12.66 6.69 13.84C6.59 13.96 6.52 14.09 6.48 14.23C6.46 14.35 6.45 14.43 6.45 14.47C6.41 14.45 6.37 14.51 6.33 14.65C6.31 14.77 6.28 14.88 6.24 14.98C6.1 15.1 6.03 15.39 6.03 15.85C5.85 16.33 5.69 16.93 5.55 17.65C5.41 18.37 5.34 18.96 5.34 19.42C5.34 19.86 5.41 20.22 5.55 20.5C5.71 20.78 5.95 20.99 6.27 21.13C6.75 21.37 7.11 21.49 7.35 21.49C7.49 21.51 7.7 21.5 7.98 21.46C8.28 21.42 8.62 21.37 9 21.31H8.97C9.07 21.29 9.62 21.17 10.62 20.95C11.1 20.89 11.5 20.8 11.82 20.68C11.98 20.64 12.2 20.58 12.48 20.5C12.78 20.4 13 20.35 13.14 20.35C13.28 20.33 13.38 20.34 13.44 20.38C13.56 20.5 13.67 20.67 13.77 20.89C13.89 21.09 13.92 21.27 13.86 21.43C13.82 21.53 13.61 21.74 13.23 22.06C12.85 22.4 12.43 22.72 11.97 23.02C11.51 23.32 11.11 23.52 10.77 23.62C10.09 23.92 9.11 24.07 7.83 24.07C6.93 24.07 6.26 23.99 5.82 23.83ZM17.8134 21.79C17.5734 21.79 17.3834 21.75 17.2434 21.67C17.1034 21.59 16.9034 21.44 16.6434 21.22C16.2434 20.8 15.9334 20.37 15.7134 19.93C15.4934 19.47 15.4134 19.07 15.4734 18.73C15.5334 18.59 15.5534 18.45 15.5334 18.31C15.5334 18.17 15.5334 18.08 15.5334 18.04C15.4534 17.96 15.4134 17.91 15.4134 17.89C15.4134 17.85 15.4334 17.82 15.4734 17.8C15.5134 17.76 15.5434 17.72 15.5634 17.68C15.6834 17.68 15.7234 17.57 15.6834 17.35C15.6434 17.19 15.7134 16.84 15.8934 16.3C16.0734 15.76 16.3034 15.26 16.5834 14.8C16.8034 14.44 17.1234 13.99 17.5434 13.45C17.9834 12.91 18.3734 12.5 18.7134 12.22C19.7134 11.36 20.6134 10.84 21.4134 10.66C21.8134 10.56 22.2034 10.51 22.5834 10.51C23.1634 10.51 23.6134 10.67 23.9334 10.99C24.3734 11.17 24.6934 11.43 24.8934 11.77C25.0934 12.11 25.2234 12.56 25.2834 13.12C25.3034 13.24 25.3134 13.44 25.3134 13.72C25.3134 15.2 24.7534 16.74 23.6334 18.34C23.1734 19 22.7134 19.53 22.2534 19.93C21.7934 20.33 21.2334 20.73 20.5734 21.13C20.2134 21.37 19.8334 21.53 19.4334 21.61C19.0334 21.69 18.4934 21.75 17.8134 21.79ZM20.8734 18.13C21.2534 17.79 21.5234 17.45 21.6834 17.11C21.8634 16.75 22.1134 16.13 22.4334 15.25C22.5534 15.07 22.6134 14.71 22.6134 14.17C22.6134 13.69 22.5434 13.42 22.4034 13.36C22.3034 13.28 22.1834 13.24 22.0434 13.24C21.8634 13.24 21.5734 13.38 21.1734 13.66C20.4734 14.26 19.8834 14.89 19.4034 15.55C18.9434 16.19 18.6234 16.93 18.4434 17.77C18.4234 17.85 18.4134 17.97 18.4134 18.13C18.4134 18.81 18.6534 19.15 19.1334 19.15C19.5934 19.15 20.1734 18.81 20.8734 18.13ZM30.2726 22.12C30.0326 22.16 29.8426 22.18 29.7026 22.18C28.8826 22.18 28.1526 21.92 27.5126 21.4C26.8926 20.86 26.5826 20.18 26.5826 19.36L26.5526 18.88C26.5526 17.94 26.7626 16.85 27.1826 15.61C27.6026 14.37 28.1226 13.36 28.7426 12.58C29.2426 12 29.6726 11.53 30.0326 11.17C30.3926 10.81 30.7226 10.57 31.0226 10.45C31.2826 10.35 31.6126 10.26 32.0126 10.18C32.4126 10.1 32.7126 10.06 32.9126 10.06C33.3126 10.16 33.6826 10.3 34.0226 10.48C34.3826 10.66 34.5626 10.86 34.5626 11.08L34.7126 11.23C34.8526 11.23 35.0126 11.45 35.1926 11.89C35.3926 12.33 35.4926 12.73 35.4926 13.09C35.4926 13.27 35.4626 13.42 35.4026 13.54C35.3226 13.92 35.1626 14.29 34.9226 14.65C34.7026 15.01 34.5126 15.19 34.3526 15.19C34.1326 15.19 34.0226 15.25 34.0226 15.37C34.0226 15.47 33.9026 15.52 33.6626 15.52C33.4626 15.52 33.2526 15.48 33.0326 15.4C32.8126 15.3 32.6826 15.18 32.6426 15.04C32.6426 14.94 32.7226 14.54 32.8826 13.84C32.9426 13.54 32.9726 13.29 32.9726 13.09C32.9726 12.73 32.8526 12.55 32.6126 12.55C32.5526 12.55 32.4026 12.59 32.1626 12.67C31.6426 12.95 31.2226 13.28 30.9026 13.66C30.6026 14.02 30.3326 14.52 30.0926 15.16C29.8526 15.8 29.5726 16.73 29.2526 17.95C29.1926 18.19 29.1626 18.41 29.1626 18.61C29.1626 18.85 29.1926 19.05 29.2526 19.21C29.3126 19.35 29.3726 19.43 29.4326 19.45C29.5326 19.49 29.7126 19.51 29.9726 19.51C30.4726 19.51 30.8726 19.42 31.1726 19.24C31.5326 19.04 31.8826 18.82 32.2226 18.58C32.5626 18.32 32.7726 18.16 32.8526 18.1C32.8926 18.06 32.9726 17.95 33.0926 17.77C33.2126 17.57 33.3426 17.44 33.4826 17.38C33.6026 17.2 33.7526 17.09 33.9326 17.05C34.1126 17.01 34.2926 16.99 34.4726 16.99C34.6526 16.99 34.7726 16.99 34.8326 16.99C35.0926 17.07 35.3426 17.25 35.5826 17.53C35.8226 17.81 35.8626 17.99 35.7026 18.07C35.6426 18.07 35.6026 18.09 35.5826 18.13C35.5626 18.17 35.5526 18.2 35.5526 18.22C35.5926 18.32 35.4326 18.59 35.0726 19.03C34.7126 19.45 34.3126 19.86 33.8726 20.26C33.4326 20.64 33.1326 20.83 32.9726 20.83C32.8926 20.83 32.8226 20.84 32.7626 20.86C32.7026 20.88 32.6726 20.93 32.6726 21.01C32.6726 21.09 32.3626 21.28 31.7426 21.58C31.1426 21.86 30.6526 22.04 30.2726 22.12ZM40.2403 21.58C40.0403 21.62 39.8603 21.64 39.7003 21.64C39.4403 21.64 39.2003 21.62 38.9803 21.58C38.7603 21.52 38.6503 21.45 38.6503 21.37C38.6503 21.31 38.6403 21.27 38.6203 21.25C38.6003 21.23 38.5603 21.22 38.5003 21.22C38.4403 21.16 38.3003 21.06 38.0803 20.92C37.8803 20.76 37.7103 20.65 37.5703 20.59C37.3303 20.25 37.2103 19.88 37.2103 19.48C37.2103 19.1 37.3303 18.49 37.5703 17.65C37.5903 16.87 37.8703 16 38.4103 15.04C38.9703 14.06 39.6403 13.16 40.4203 12.34C41.2003 11.5 41.9003 10.9 42.5203 10.54C42.8203 10.24 43.2403 10.09 43.7803 10.09C44.2003 10.09 44.5703 10.18 44.8903 10.36C45.1503 10.52 45.4703 10.86 45.8503 11.38C46.2503 11.9 46.5503 12.37 46.7503 12.79C46.7903 12.93 46.8403 13.12 46.9003 13.36C46.9803 13.6 47.0203 13.89 47.0203 14.23L46.9603 15.07C46.7203 15.89 46.6003 16.63 46.6003 17.29C46.5603 17.57 46.5803 17.8 46.6603 17.98C46.7403 18.14 46.8503 18.22 46.9903 18.22C47.0903 18.22 47.2003 18.19 47.3203 18.13C47.4403 18.07 47.5803 18.04 47.7403 18.04C48.0003 18.04 48.2203 18.12 48.4003 18.28C48.5803 18.44 48.6703 18.64 48.6703 18.88C48.6703 19.08 48.6203 19.27 48.5203 19.45C48.3403 19.85 48.0003 20.21 47.5003 20.53C47.0203 20.85 46.5703 21.01 46.1503 21.01C45.8103 21.01 45.4803 20.83 45.1603 20.47C44.8603 20.11 44.6203 19.64 44.4403 19.06L44.2603 18.37L43.1803 19.36L42.4903 20.05C42.1703 20.37 41.9903 20.56 41.9503 20.62C41.8503 20.78 41.6703 20.93 41.4103 21.07C41.1703 21.21 40.7803 21.38 40.2403 21.58ZM41.0503 18.7C41.4103 18.5 41.7103 18.25 41.9503 17.95C42.2103 17.65 42.5303 17.23 42.9103 16.69C42.9903 16.57 43.0703 16.45 43.1503 16.33C43.2303 16.19 43.3303 16.05 43.4503 15.91C43.7903 15.45 44.0303 15.08 44.1703 14.8C44.3303 14.52 44.4503 14.22 44.5303 13.9C44.4503 13.64 44.3303 13.4 44.1703 13.18C44.0303 12.94 43.9003 12.81 43.7803 12.79C43.2203 12.79 42.4603 13.45 41.5003 14.77C41.4003 14.91 41.2403 15.16 41.0203 15.52C40.8203 15.88 40.6903 16.12 40.6303 16.24C40.5303 16.38 40.3903 16.72 40.2103 17.26C40.0503 17.78 39.9703 18.12 39.9703 18.28C39.9703 18.72 40.1003 18.94 40.3603 18.94C40.5603 18.94 40.7903 18.86 41.0503 18.7ZM50.655 21.28C50.395 21.14 50.155 20.96 49.935 20.74C49.735 20.5 49.635 20.28 49.635 20.08C49.635 19.8 49.665 19.44 49.725 19C49.805 18.56 49.895 18.16 49.995 17.8C50.055 17.3 50.115 16.9 50.175 16.6C50.255 16.28 50.385 15.97 50.565 15.67C50.645 15.37 50.785 14.92 50.985 14.32C51.425 12.92 51.725 11.84 51.885 11.08C52.045 10.64 52.185 10.25 52.305 9.91C52.425 9.57 52.535 9.26 52.635 8.98C52.595 9.1 52.845 8.42 53.385 6.94C53.545 6.46 53.655 6.09 53.715 5.83C53.935 4.93 54.185 4.25 54.465 3.79C54.605 3.59 54.705 3.42 54.765 3.28C54.845 3.14 54.915 3.03 54.975 2.95C54.995 2.87 55.095 2.8 55.275 2.74C55.475 2.68 55.675 2.65 55.875 2.65C56.095 2.65 56.245 2.69 56.325 2.77C56.425 2.73 56.595 2.9 56.835 3.28C57.095 3.64 57.215 3.9 57.195 4.06C57.195 4.32 57.125 4.56 56.985 4.78C56.905 4.86 56.815 5.01 56.715 5.23C56.615 5.43 56.525 5.6 56.445 5.74C56.405 5.88 56.335 6.12 56.235 6.46C56.155 6.78 56.075 7.05 55.995 7.27C55.895 7.51 55.795 7.74 55.695 7.96C55.615 8.16 55.545 8.34 55.485 8.5C55.405 8.76 55.265 9.15 55.065 9.67C54.785 10.35 54.595 10.88 54.495 11.26C54.455 11.38 54.385 11.63 54.285 12.01C54.005 13.01 53.735 13.74 53.475 14.2C53.315 14.46 53.195 14.81 53.115 15.25C53.055 15.69 53.015 15.96 52.995 16.06C52.695 16.96 52.545 17.49 52.545 17.65C52.505 17.83 52.435 18.18 52.335 18.7C52.215 19.34 52.095 19.8 51.975 20.08C51.935 20.38 51.815 20.67 51.615 20.95C51.435 21.23 51.225 21.37 50.985 21.37C50.885 21.37 50.775 21.34 50.655 21.28ZM58.177 22.21C57.117 22.21 56.337 21.87 55.837 21.19C55.697 20.91 55.627 20.61 55.627 20.29C55.627 20.05 55.667 19.85 55.747 19.69C55.827 19.53 55.937 19.45 56.077 19.45C56.177 19.45 56.277 19.5 56.377 19.6C56.637 19.76 57.007 19.84 57.487 19.84C57.687 19.84 58.127 19.82 58.807 19.78C59.107 19.76 59.337 19.69 59.497 19.57C59.677 19.43 59.767 19.28 59.767 19.12C59.767 18.96 59.707 18.84 59.587 18.76H59.617C58.777 18.56 57.997 18.22 57.277 17.74C56.557 17.24 56.157 16.77 56.077 16.33C56.017 16.05 55.987 15.79 55.987 15.55C55.987 15.01 56.097 14.47 56.317 13.93C56.557 13.39 56.867 12.9 57.247 12.46C57.347 12.4 57.567 12.25 57.907 12.01C58.267 11.75 58.527 11.6 58.687 11.56V11.59C59.047 11.21 59.447 10.9 59.887 10.66C60.347 10.4 60.937 10.15 61.657 9.91L62.137 9.85L62.767 9.79C62.787 9.81 62.837 9.84 62.917 9.88C63.017 9.9 63.117 9.92 63.217 9.94C63.337 10 63.457 10.03 63.577 10.03C63.997 10.11 64.387 10.4 64.747 10.9C65.127 11.38 65.297 11.83 65.257 12.25C65.197 12.73 65.017 13.19 64.717 13.63C64.437 14.07 64.147 14.32 63.847 14.38C63.887 14.36 63.827 14.31 63.667 14.23C63.527 14.15 63.437 14.1 63.397 14.08L63.277 14.14C63.277 14.12 63.267 14.09 63.247 14.05C63.247 13.99 63.227 13.92 63.187 13.84C63.047 13.58 62.987 13.25 63.007 12.85L63.067 12.55C63.067 12.49 63.027 12.45 62.947 12.43C62.887 12.39 62.797 12.37 62.677 12.37C62.617 12.35 62.517 12.34 62.377 12.34C62.097 12.34 61.787 12.4 61.447 12.52C61.127 12.64 60.837 12.8 60.577 13C59.997 13.4 59.617 13.69 59.437 13.87C59.277 14.03 59.107 14.32 58.927 14.74C58.727 15.04 58.627 15.27 58.627 15.43C58.627 15.63 58.777 15.83 59.077 16.03C59.397 16.23 59.927 16.48 60.667 16.78C61.087 16.96 61.387 17.19 61.567 17.47C61.747 17.73 61.887 17.99 61.987 18.25C62.087 18.49 62.157 18.66 62.197 18.76C62.237 18.88 62.277 19.04 62.317 19.24C62.357 19.44 62.367 19.55 62.347 19.57L62.407 19.69V19.66C62.467 19.78 62.497 19.9 62.497 20.02C62.497 20.42 62.237 20.83 61.717 21.25C61.197 21.67 60.577 21.95 59.857 22.09H59.887C59.347 22.17 58.777 22.21 58.177 22.21Z" fill="#296ECB"/>
</svg>
