<svg width="84" height="27" viewBox="0 0 84 27" fill="none" xmlns="http://www.w3.org/2000/svg">
<path d="M73.5754 0.470703L69.2455 22.0123L64.9516 0.470703H54.5957V25.7289H60.2608V4.1151L65.2402 25.7289H73.2146L78.1941 4.1151V25.7289H83.823V0.470703H73.5754Z" fill="#ffffff"/>
<path d="M28.0449 13.0621C28.0449 21.1447 32.4471 26.1242 40.4214 26.1242C48.4319 26.1242 52.834 21.1447 52.834 13.0621C52.834 4.97947 48.4319 0 40.4214 0C32.4471 0 28.0449 4.97947 28.0449 13.0621ZM33.9626 13.0621C33.9626 8.15479 36.308 4.83514 40.4214 4.83514C44.571 4.83514 46.9164 8.15479 46.9164 13.0621C46.9164 17.9694 44.571 21.2891 40.4214 21.2891C36.308 21.2891 33.9626 17.9694 33.9626 13.0621Z" fill="#ffffff"/>
<path d="M8.2659 25.7285L14.2196 4.11472L20.029 25.7285L26.1992 25.7285L18.73 0.470317L9.81747 0.470317L2.24002 25.7285L8.2659 25.7285Z" fill="#ffffff"/>
<path d="M28.082 20.0811L28.082 25.7288L-6.66899e-05 25.7288L-6.67572e-05 20.0811L28.082 20.0811Z" fill="#ffffff"/>
</svg>
